<?xml version="1.0" encoding="UTF-8" standalone="no" ?>
<!-- Generator: Adobe Illustrator 27.6.1, SVG Export Plug-In . SVG Version: 6.00 Build 0)  -->
<svg
	version="1.1"
	id="图层_1"
	x="0px"
	y="0px"
	viewBox="0 0 1022 1022"
	xml:space="preserve"
	sodipodi:docname="icon.svg"
	width="1022"
	height="1022"
	inkscape:version="1.4.2 (ebf0e940, 2025-05-08)"
	xmlns:inkscape="http://www.inkscape.org/namespaces/inkscape"
	xmlns:sodipodi="http://sodipodi.sourceforge.net/DTD/sodipodi-0.dtd"
	xmlns="http://www.w3.org/2000/svg"
	xmlns:svg="http://www.w3.org/2000/svg"
><defs id="defs9" /><sodipodi:namedview
		id="namedview9"
		pagecolor="#ffffff"
		bordercolor="#666666"
		borderopacity="1.0"
		inkscape:showpageshadow="2"
		inkscape:pageopacity="0.0"
		inkscape:pagecheckerboard="0"
		inkscape:deskcolor="#d1d1d1"
		inkscape:zoom="0.54736842"
		inkscape:cx="482.30769"
		inkscape:cy="515.19231"
		inkscape:window-width="1920"
		inkscape:window-height="1027"
		inkscape:window-x="0"
		inkscape:window-y="25"
		inkscape:window-maximized="1"
		inkscape:current-layer="图层_1"
	/>
<style type="text/css" id="style1">
.st0 {
	fill: #d7d7d7;
}
.st1 {
	fill: #8e8f89;
}
.st2 {
	fill: #ffffff;
}
.st3 {
	fill: #3d7bae;
}
	</style>
<circle class="st0" cx="511" cy="511" r="511" id="circle1" />
<g id="g2" transform="translate(-277,-123)">
		<path
			class="st1"
			d="m 560,432 c 0,0 35,-55 103,-91 0,0 -22,-37 -74,-26 0,0 -44,11 -51,62 0,0 -1,32 22,55 z"
			id="path1"
		/>
		<path
			class="st1"
			d="m 1016,432 c 0,0 -35,-55 -103,-91 0,0 22,-37 74,-26 0,0 44,11 51,62 0,0 1,32 -22,55 z"
			id="path2"
		/>
		<ellipse class="st1" cx="788" cy="576.5" rx="256" ry="248.5" id="ellipse2" />
		<circle class="st1" cx="788" cy="806" r="73" id="circle2" />
	</g>
<g id="g4" transform="translate(-277,-123)">
		<path class="st2" d="m 489,819 9,48 -19,38 c 0,0 -18,21 -41,4 0,0 -28,-13 -27,-53 0,0 2,-29 23,-62 z" id="path3" />
		<path
			class="st2"
			d="m 442,785 57,29 9.3,52.1 c 0.7,3.8 2.4,7.3 5.1,10.1 4.2,4.3 11.6,9 23.6,7.8 0,0 22.3,-3.7 21.2,-30.9 -0.1,-2.4 -0.2,-4.8 -0.1,-7.2 l 1.6,-41.4 c 0.1,-3.3 0.4,-6.6 0.8,-9.9 1.2,-10.2 1.6,-40.2 -30.5,-52.5 0,0 -14.6,-6.1 -32.4,-2.1 -7.9,1.7 -15.1,5.6 -21.1,11.1 -10.6,9.5 -33,30.1 -34.5,33.9 z"
			id="path4"
		/>
	</g>
<g id="g6" transform="translate(-277,-123)">
		<path class="st2" d="m 1086.9,820 -9,48 19,38 c 0,0 18,21 41,4 0,0 28,-13 27,-53 0,0 -2,-29 -23,-62 z" id="path5" />
		<path
			class="st2"
			d="m 1133.9,786 -57,29 -9.3,52.1 c -0.7,3.8 -2.4,7.3 -5.1,10.1 -4.2,4.3 -11.6,9 -23.6,7.8 0,0 -22.3,-3.7 -21.2,-30.9 0.1,-2.4 0.2,-4.8 0.1,-7.2 l -1.6,-41.4 c -0.1,-3.3 -0.4,-6.6 -0.8,-9.9 -1.2,-10.2 -1.6,-40.2 30.5,-52.5 0,0 14.6,-6.1 32.4,-2.1 7.9,1.7 15.1,5.6 21.1,11.1 10.5,9.5 32.9,30.1 34.5,33.9 z"
			id="path6"
		/>
	</g>
<path
		class="st3"
		d="m 329,374 c 0,0 13,-46 83,-64 0,0 158,-42 256,28 0,0 44,36 37,115 0,0 14,116 -123,135 0,0 -162,26 -229,-37 0,0 -66,-54 -24,-177 z"
		id="path7"
	/>
<path
		class="st2"
		d="m 447.5,499 h -34 c -3.6,0 -6.5,-2.9 -6.5,-6.5 v -96 c 0,-3.6 2.9,-6.5 6.5,-6.5 h 34 c 3.6,0 6.5,2.9 6.5,6.5 v 96 c 0,3.6 -2.9,6.5 -6.5,6.5 z"
		id="path8"
	/>
<path
		class="st2"
		d="m 608.5,499 h -34 c -3.6,0 -6.5,-2.9 -6.5,-6.5 v -96 c 0,-3.6 2.9,-6.5 6.5,-6.5 h 34 c 3.6,0 6.5,2.9 6.5,6.5 v 96 c 0,3.6 -2.9,6.5 -6.5,6.5 z"
		id="path9"
	/>
</svg>
